    <svg viewBox="0 0 53 60" xmlns="http://www.w3.org/2000/svg">
        <path d="M50.7047 15.8511H42.8783L47.3345 12.2295C47.5469 12.0704 47.7313 11.8717 47.8765 11.6386C48.231 11.0694 48.3033 10.3813 48.0747 9.75079L45.0584 1.43317C44.6539 0.317426 43.4555 -0.261715 42.3297 0.114574L40.5567 0.707192C40.0969 0.860942 39.8488 1.35817 40.0026 1.8179C40.1563 2.27774 40.6533 2.52594 41.1134 2.37219L42.8863 1.77946C43.1012 1.70786 43.3308 1.81836 43.408 2.03165L46.4243 10.3493C46.5085 10.6616 46.3471 10.8513 46.0792 10.9034L41.1422 11.4419C39.4715 11.6242 37.8532 12.2189 36.4623 13.1618L33.1881 15.3813C33.162 15.3765 32.629 15.2764 32.629 15.2764V12.7613C32.629 11.8242 32.4171 10.9359 32.0398 10.1407L33.5943 7.3011C34.4755 5.6913 35.8197 4.42895 37.481 3.65047C37.92 3.44481 38.1092 2.92227 37.9035 2.48329C37.6978 2.0443 37.1753 1.85528 36.7364 2.06083C34.735 2.99856 33.116 4.51907 32.0544 6.45805L30.9238 8.52325C29.8061 7.35536 28.2339 6.62575 26.4935 6.62575C24.7539 6.62575 23.1823 7.35477 22.0647 8.52184L20.9327 6.45419C19.6775 4.1613 17.6209 2.44227 15.1418 1.61352L10.657 0.114574C9.5318 -0.261481 8.33297 0.317426 7.92832 1.43317L4.91203 9.75079C4.6834 10.3813 4.75571 11.0694 5.1102 11.6386C5.23418 11.8376 5.38688 12.0113 5.56102 12.1571C5.56137 12.1575 10.106 15.8511 10.106 15.8511H2.28211C1.02375 15.8511 0 16.8749 0 18.1332V27.5753C0 28.8336 1.02375 29.8574 2.28211 29.8574H4.12418V57.3668C4.12418 58.8187 5.30543 60 6.75739 60H46.2294C47.6814 60 48.8626 58.8187 48.8626 57.3668V47.1943C49.1822 47.2036 49.4693 47.2073 49.7288 47.2073C49.7867 47.2073 49.8429 47.2072 49.8974 47.2069C50.7157 47.2021 51.417 46.6144 51.5652 45.8093C52.0183 43.3432 52.799 37.2349 50.2676 33.7851C49.8855 33.2645 49.4052 32.8315 48.8626 32.5038V29.8574H50.7047C51.9631 29.8574 52.9868 28.8336 52.9868 27.5753V18.1332C52.9869 16.8749 51.9631 15.8511 50.7047 15.8511ZM37.4473 14.6149C38.6021 13.8321 39.9456 13.3384 41.3326 13.187L43.689 12.93L40.0949 15.8511H35.6236L37.4473 14.6149ZM36.5247 21.8751C36.3176 24.377 37.6214 26.7451 39.8461 27.9081L40.2169 28.1019H33.704V21.8297C33.704 21.3449 33.311 20.9519 32.8262 20.9519C32.3414 20.9519 31.9485 21.3449 31.9485 21.8297V28.1019H21.0382V17.6066H34.2663C35.7555 18.4381 36.6739 20.0733 36.5247 21.8751ZM26.4934 8.38134C28.9085 8.38134 30.8734 10.3462 30.8734 12.7613V15.0283C30.5444 15.1094 30.278 15.3783 30.2176 15.7338C30.211 15.7732 30.2079 15.8123 30.2066 15.8511H22.1134V12.7615C22.1134 10.3462 24.0783 8.38134 26.4934 8.38134ZM6.56239 10.3493L9.57868 2.03165C9.65602 1.81836 9.88548 1.7075 10.1004 1.77946L14.5849 3.27852C16.6432 3.96653 18.3505 5.39364 19.3925 7.29723L20.948 10.1386C20.5701 10.9344 20.3578 11.8234 20.3578 12.7613V15.7603L16.5244 13.1618C15.1335 12.2189 13.5151 11.624 11.8445 11.4419L6.9075 10.9034C6.63493 10.8497 6.48012 10.6617 6.56239 10.3493ZM9.29497 12.9297L11.6542 13.1871C13.0412 13.3384 14.3848 13.8321 15.5395 14.615L17.3632 15.8512H12.8895L9.29497 12.9297ZM1.75535 27.5753V18.1332C1.75535 17.8428 1.9916 17.6066 2.28199 17.6066H19.2827V28.1019H2.28211C1.9916 28.1019 1.75535 27.8656 1.75535 27.5753ZM5.87965 57.3668V29.8574H19.2827V31.1663C19.2827 31.6512 19.6757 32.0441 20.1605 32.0441C20.6453 32.0441 21.0382 31.6512 21.0382 31.1663V29.8574H31.9485V58.2444H21.0382V35.5112C21.0382 35.0264 20.6453 34.6335 20.1605 34.6335C19.6757 34.6335 19.2827 35.0264 19.2827 35.5112V58.2445H6.75739C6.2734 58.2445 5.87965 57.8508 5.87965 57.3668ZM47.1072 57.3668C47.1072 57.8508 46.7134 58.2445 46.2294 58.2445H33.7041V29.8574H42.0427C42.494 30.6503 42.7016 31.5796 42.6011 32.5366L42.4483 33.9928C42.1002 34.549 41.8723 35.173 41.7824 35.8294C40.6445 35.7841 39.5325 36.1528 38.6357 36.8879C37.631 37.7114 37.0338 38.8856 36.9537 40.1945C36.872 41.5296 37.3575 42.8532 38.2856 43.8261C40.4244 46.0677 44.2131 46.8392 47.1073 47.091V57.3668H47.1072ZM49.846 45.4517C48.0216 45.4578 42.0879 45.2684 39.5557 42.6145C38.9636 41.9939 38.6537 41.151 38.7058 40.3018C38.7557 39.4862 39.126 38.7559 39.7484 38.2458C40.2784 37.8114 40.9298 37.5818 41.5997 37.5818C41.8082 37.5818 42.0184 37.604 42.2275 37.6492C42.5459 37.718 42.8722 37.6377 43.122 37.4285C43.3717 37.2193 43.508 36.9123 43.496 36.5859C43.4625 35.6856 43.8347 34.8341 44.517 34.2496C45.1282 33.7258 45.9124 33.4888 46.7236 33.5825C47.5688 33.6798 48.3446 34.1324 48.852 34.8238C51.0224 37.7814 50.173 43.6537 49.846 45.4517ZM47.1072 31.8646C47.0465 31.8552 46.9858 31.8457 46.9246 31.8387C46.0313 31.7356 45.1575 31.8835 44.3783 32.2594C44.4052 31.4237 44.2651 30.6103 43.9806 29.8575H47.1072V31.8646ZM51.2315 27.5753C51.2315 27.8656 50.9952 28.1019 50.7048 28.1019H42.9596C42.4409 27.4762 41.7939 26.9454 41.0384 26.5503L40.6595 26.3523C39.0618 25.5171 38.1255 23.8165 38.2743 22.0199C38.4032 20.4614 37.9462 18.9229 36.9874 17.6876C36.966 17.6599 36.9433 17.6336 36.9215 17.6065H50.7048C50.9952 17.6065 51.2315 17.8427 51.2315 18.1331V27.5753Z" fill="url(#paint0_linear)" />
        <defs>
            <linearGradient id="paint0_linear" x1="48.6097" y1="-6.99997" x2="-1.31401" y2="-3.74651" gradientUnits="userSpaceOnUse">
                <stop stop-color="#DC5953" />
                <stop offset="1" stop-color="#FD6F31" />
            </linearGradient>
        </defs>
    </svg>
