    <svg viewBox="0 0 60 60" xmlns="http://www.w3.org/2000/svg">
        <path d="M55.9983 27.001H53.9988V11.0013C53.9988 10.4486 53.5508 10.0014 52.9986 10.0014H46.9417L44.9531 3.70136C44.8697 3.4384 44.6822 3.22183 44.435 3.10176C44.1868 2.98144 43.9003 2.96965 43.6426 3.06767L35.4992 6.17119L31.8414 0.462468C31.6975 0.237618 31.4697 0.0791955 31.2082 0.0237977C30.9475 -0.0348587 30.6736 0.016027 30.4517 0.164172L15.4379 10.0014H6.99967C3.13586 10.0057 0.00476272 13.1373 0 17.0011V53.0001C0.00476272 56.8639 3.13586 59.9955 6.99967 60H52.9986C53.5508 60 53.9988 59.5521 53.9988 58.9998V47.0001H55.9983C58.2077 47.0001 59.9985 45.2093 59.9985 43.0007V31.0009C59.9985 28.7913 58.2077 27.001 55.9983 27.001ZM55.9983 29.0008C57.103 29.0008 57.9984 29.8957 57.9984 31.0009C57.9984 32.1054 57.103 33.0005 55.9983 33.0005H53.9988V29.0008H55.9983ZM51.9984 12.0015V22.0009H50.7318L47.5739 12.0015H51.9984ZM48.6352 22.0009H45.7202L42.9478 13.685C42.8119 13.2766 42.4297 13.0007 41.999 13.0009C40.9833 13.0042 40.0082 12.6006 39.292 11.8804L38.7057 11.2941C38.43 11.0181 38.0184 10.9276 37.6519 11.063L8.06601 22.0009H6.99967C5.66636 22.0007 4.38845 21.4667 3.45221 20.5177L43.3654 5.31842L48.6352 22.0009ZM43.6123 22.0009H13.8319L37.7454 13.1608L37.8778 13.2942C38.7889 14.2104 39.9809 14.7954 41.263 14.9546L43.6123 22.0009ZM30.6994 2.39236L33.5861 6.90114L10.2631 15.7831L30.6994 2.39236ZM6.99967 12.0015H12.385L2.29136 18.6146C2.10511 18.097 2.00635 17.5513 2.00008 17.0011C2.00359 14.2412 4.24006 12.0042 6.99967 12.0015ZM51.9984 57.9997H6.99967C4.24006 57.9964 2.00359 55.7597 2.00008 53.0001V21.9009C2.00961 21.9097 2.01989 21.9179 2.02891 21.928C2.10712 22.0059 2.18984 22.0776 2.27131 22.1518C2.35202 22.2258 2.439 22.3105 2.52799 22.3847C2.61723 22.4589 2.70321 22.5185 2.79094 22.5847C2.87893 22.6509 2.97318 22.7266 3.06893 22.7933C3.16494 22.8587 3.25794 22.9096 3.35219 22.968C3.44644 23.0261 3.54671 23.0918 3.65199 23.148C3.75727 23.2036 3.85704 23.2477 3.96006 23.2989C4.06309 23.3495 4.16035 23.3989 4.26613 23.4468C4.37216 23.4946 4.49348 23.5317 4.60704 23.5726C4.72109 23.6137 4.80707 23.6528 4.91235 23.6844C5.03794 23.7248 5.16753 23.7531 5.29663 23.7847C5.39689 23.8085 5.48814 23.8391 5.5859 23.8589C5.73304 23.8897 5.88595 23.9075 6.0351 23.9288C6.11882 23.9401 6.20029 23.9576 6.28526 23.9667C6.5224 23.9902 6.76103 24.0015 6.99967 24.0012H8.30039L8.31468 24.0393L8.42171 24.0012H51.9984V33.0005H40.9988C37.1335 33.0005 33.9992 36.1344 33.9992 40.0004C33.9992 43.8662 37.1335 47.0001 40.9988 47.0001H51.9984V57.9997ZM57.9984 43.0007C57.9984 44.1051 57.103 45.0002 55.9983 45.0002H40.9988C38.2377 45.0002 35.9993 42.7618 35.9993 40.0004C35.9993 37.2388 38.2377 35.0008 40.9988 35.0008H55.9983C56.24 34.9983 56.4796 34.9738 56.7168 34.9276C56.7734 34.9179 56.8298 34.9066 56.8857 34.893C57.1118 34.8442 57.3334 34.775 57.5475 34.6877L57.5816 34.6715C57.7247 34.6108 57.8636 34.5406 57.9984 34.4636V43.0007Z" fill="url(#paint0_linear)" />
        <path d="M21.5713 27.001H25.5715V29.0008H21.5713V27.001Z" fill="url(#paint1_linear)" />
        <path d="M13.5723 27.001H17.5719V29.0008H13.5723V27.001Z" fill="url(#paint2_linear)" />
        <path d="M45.5708 27.001H48.9982V29.0008H45.5708V27.001Z" fill="url(#paint3_linear)" />
        <path d="M37.5713 27.001H41.571V29.0008H37.5713V27.001Z" fill="url(#paint4_linear)" />
        <path d="M5.81956 26.8608L5.35156 28.8008C5.8915 28.9314 6.44448 28.9988 6.99946 29.0008H9.57157V27.001H6.99946C6.6024 27 6.20634 26.9531 5.81956 26.8608Z" fill="url(#paint5_linear)" />
        <path d="M29.5713 27.001H33.5712V29.0008H29.5713V27.001Z" fill="url(#paint6_linear)" />
        <path d="M5.81956 52.8599L5.35156 54.7995C5.8915 54.9304 6.44448 54.9981 6.99946 55.0001H9.57157V53H6.99946C6.6024 52.9987 6.20634 52.9526 5.81956 52.8599Z" fill="url(#paint7_linear)" />
        <path d="M45.5708 53H48.9982V55.0001H45.5708V53Z" fill="url(#paint8_linear)" />
        <path d="M21.5713 53H25.5715V55.0001H21.5713V53Z" fill="url(#paint9_linear)" />
        <path d="M37.5713 53H41.571V55.0001H37.5713V53Z" fill="url(#paint10_linear)" />
        <path d="M13.5723 53H17.5719V55.0001H13.5723V53Z" fill="url(#paint11_linear)" />
        <path d="M29.5713 53H33.5712V55.0001H29.5713V53Z" fill="url(#paint12_linear)" />
        <path d="M40.999 37.0007C39.3424 37.0007 37.999 38.3436 37.999 40.0005C37.999 41.6569 39.3424 43.0007 40.999 43.0007C42.6557 43.0007 43.9988 41.6569 43.9988 40.0005C43.9988 38.3436 42.6557 37.0007 40.999 37.0007ZM40.999 41.0007C40.4471 41.0007 39.9991 40.5527 39.9991 40.0005C39.9991 39.448 40.4471 39.0006 40.999 39.0006C41.5512 39.0006 41.9992 39.448 41.9992 40.0005C41.9992 40.5527 41.5512 41.0007 40.999 41.0007Z" fill="url(#paint13_linear)" />
        <defs>
            <linearGradient id="paint0_linear" x1="55.0421" y1="-6.99997" x2="-1.42051" y2="-2.83345" gradientUnits="userSpaceOnUse">
                <stop stop-color="#DC5953" />
                <stop offset="1" stop-color="#FD6F31" />
            </linearGradient>
            <linearGradient id="paint1_linear" x1="25.241" y1="26.7677" x2="21.5368" y2="27.3144" gradientUnits="userSpaceOnUse">
                <stop stop-color="#DC5953" />
                <stop offset="1" stop-color="#FD6F31" />
            </linearGradient>
            <linearGradient id="paint2_linear" x1="17.2415" y1="26.7677" x2="13.5378" y2="27.3143" gradientUnits="userSpaceOnUse">
                <stop stop-color="#DC5953" />
                <stop offset="1" stop-color="#FD6F31" />
            </linearGradient>
            <linearGradient id="paint3_linear" x1="48.7151" y1="26.7677" x2="45.5231" y2="27.1713" gradientUnits="userSpaceOnUse">
                <stop stop-color="#DC5953" />
                <stop offset="1" stop-color="#FD6F31" />
            </linearGradient>
            <linearGradient id="paint4_linear" x1="41.2405" y1="26.7677" x2="37.5368" y2="27.3143" gradientUnits="userSpaceOnUse">
                <stop stop-color="#DC5953" />
                <stop offset="1" stop-color="#FD6F31" />
            </linearGradient>
            <linearGradient id="paint5_linear" x1="9.22296" y1="26.6112" x2="5.31283" y2="27.1802" gradientUnits="userSpaceOnUse">
                <stop stop-color="#DC5953" />
                <stop offset="1" stop-color="#FD6F31" />
            </linearGradient>
            <linearGradient id="paint6_linear" x1="33.2408" y1="26.7677" x2="29.5368" y2="27.3144" gradientUnits="userSpaceOnUse">
                <stop stop-color="#DC5953" />
                <stop offset="1" stop-color="#FD6F31" />
            </linearGradient>
            <linearGradient id="paint7_linear" x1="9.22296" y1="52.6102" x2="5.31281" y2="53.1791" gradientUnits="userSpaceOnUse">
                <stop stop-color="#DC5953" />
                <stop offset="1" stop-color="#FD6F31" />
            </linearGradient>
            <linearGradient id="paint8_linear" x1="48.7151" y1="52.7667" x2="45.5231" y2="53.1703" gradientUnits="userSpaceOnUse">
                <stop stop-color="#DC5953" />
                <stop offset="1" stop-color="#FD6F31" />
            </linearGradient>
            <linearGradient id="paint9_linear" x1="25.241" y1="52.7667" x2="21.5368" y2="53.3134" gradientUnits="userSpaceOnUse">
                <stop stop-color="#DC5953" />
                <stop offset="1" stop-color="#FD6F31" />
            </linearGradient>
            <linearGradient id="paint10_linear" x1="41.2405" y1="52.7667" x2="37.5368" y2="53.3132" gradientUnits="userSpaceOnUse">
                <stop stop-color="#DC5953" />
                <stop offset="1" stop-color="#FD6F31" />
            </linearGradient>
            <linearGradient id="paint11_linear" x1="17.2415" y1="52.7667" x2="13.5377" y2="53.3132" gradientUnits="userSpaceOnUse">
                <stop stop-color="#DC5953" />
                <stop offset="1" stop-color="#FD6F31" />
            </linearGradient>
            <linearGradient id="paint12_linear" x1="33.2408" y1="52.7667" x2="29.5368" y2="53.3133" gradientUnits="userSpaceOnUse">
                <stop stop-color="#DC5953" />
                <stop offset="1" stop-color="#FD6F31" />
            </linearGradient>
            <linearGradient id="paint13_linear" x1="43.5031" y1="36.3007" x2="37.857" y2="36.7174" gradientUnits="userSpaceOnUse">
                <stop stop-color="#DC5953" />
                <stop offset="1" stop-color="#FD6F31" />
            </linearGradient>
        </defs>
    </svg>
