<svg viewBox="0 0 60 60" xmlns="http://www.w3.org/2000/svg">
        <path d="M40.8016 12.0672C40.918 12.0673 41.0332 12.0444 41.1408 11.9999C41.2483 11.9554 41.346 11.8902 41.4283 11.8079C41.5106 11.7256 41.5759 11.6279 41.6204 11.5203C41.6649 11.4128 41.6877 11.2976 41.6877 11.1812V5.9913C41.6877 5.7563 41.5943 5.53092 41.4282 5.36475C41.262 5.19858 41.0366 5.10522 40.8016 5.10522C40.5666 5.10522 40.3412 5.19858 40.1751 5.36475C40.0089 5.53092 39.9155 5.7563 39.9155 5.9913V11.1812C39.9155 11.2976 39.9383 11.4128 39.9828 11.5203C40.0273 11.6279 40.0926 11.7256 40.1749 11.8079C40.2572 11.8902 40.3549 11.9554 40.4624 11.9999C40.57 12.0444 40.6852 12.0673 40.8016 12.0672Z" fill="url(#paint0_linear)" />
        <path d="M56.076 19.038H51.043V6.70886C51.0429 6.4739 50.9495 6.2486 50.7834 6.08246C50.6172 5.91632 50.3919 5.82292 50.157 5.82278H44.7241V0.886076C44.7241 0.651074 44.6307 0.425697 44.4645 0.259526C44.2984 0.0933542 44.073 0 43.838 0H16.162C15.927 0 15.7016 0.0933542 15.5355 0.259526C15.3693 0.425697 15.2759 0.651074 15.2759 0.886076V5.82278H9.84304C9.60808 5.82292 9.38278 5.91632 9.21664 6.08246C9.05049 6.2486 8.9571 6.4739 8.95696 6.70886V19.038H3.92405C2.8837 19.0392 1.8863 19.453 1.15066 20.1886C0.415019 20.9243 0.00120605 21.9217 0 22.962V47.119C0.00120605 48.1593 0.415019 49.1567 1.15066 49.8924C1.8863 50.628 2.8837 51.0418 3.92405 51.043H15.2744V59.1139C15.2744 59.3489 15.3678 59.5743 15.534 59.7405C15.7001 59.9066 15.9255 60 16.1605 60H43.8395C44.0745 60 44.2999 59.9066 44.466 59.7405C44.6322 59.5743 44.7256 59.3489 44.7256 59.1139V51.043H56.076C57.1163 51.0418 58.1137 50.628 58.8493 49.8924C59.585 49.1567 59.9988 48.1593 60 47.119V22.962C59.9988 21.9217 59.585 20.9243 58.8493 20.1886C58.1137 19.453 57.1163 19.0392 56.076 19.038ZM49.2709 7.59494V19.038H44.7241V7.59494H49.2709ZM17.0481 1.77215H42.9519V19.038H17.0481V1.77215ZM10.7291 7.59494H15.2759V19.038H10.7291V7.59494ZM10.7291 49.2709V40.2532H15.2744V49.2709H10.7291ZM17.0466 58.2278V40.2532H42.9534C42.9534 40.2532 42.9534 50.1519 42.9534 50.157C42.9534 50.162 42.9534 58.2278 42.9534 58.2278H17.0466ZM44.7256 49.2709V40.2532H49.2709V49.2709H44.7256ZM58.2278 47.119C58.2272 47.6895 58.0002 48.2365 57.5968 48.6399C57.1934 49.0433 56.6465 49.2702 56.076 49.2709H51.043V39.3671C51.0429 39.1321 50.9495 38.9068 50.7834 38.7407C50.6172 38.5745 50.3919 38.4811 50.157 38.481H9.84304C9.60808 38.4811 9.38278 38.5745 9.21664 38.7407C9.05049 38.9068 8.9571 39.1321 8.95696 39.3671V49.2709H3.92405C3.35354 49.2702 2.80658 49.0433 2.40317 48.6399C1.99975 48.2365 1.77282 47.6895 1.77215 47.119V22.962C1.77282 22.3915 1.99975 21.8446 2.40317 21.4411C2.80658 21.0377 3.35354 20.8108 3.92405 20.8101H56.076C56.6465 20.8108 57.1934 21.0377 57.5968 21.4411C58.0002 21.8446 58.2272 22.3915 58.2278 22.962V47.119Z" fill="url(#paint1_linear)" />
        <path d="M18.0169 25.1118H5.4432C5.2082 25.1118 4.98283 25.2052 4.81665 25.3713C4.65048 25.5375 4.55713 25.7629 4.55713 25.9979C4.55713 26.2329 4.65048 26.4583 4.81665 26.6244C4.98283 26.7906 5.2082 26.884 5.4432 26.884H18.0169C18.2519 26.884 18.4773 26.7906 18.6434 26.6244C18.8096 26.4583 18.903 26.2329 18.903 25.9979C18.903 25.7629 18.8096 25.5375 18.6434 25.3713C18.4773 25.2052 18.2519 25.1118 18.0169 25.1118Z" fill="url(#paint2_linear)" />
        <path d="M37.595 42.7849H22.4051C22.1701 42.7849 21.9447 42.8783 21.7786 43.0444C21.6124 43.2106 21.519 43.436 21.519 43.671C21.519 43.906 21.6124 44.1314 21.7786 44.2975C21.9447 44.4637 22.1701 44.5571 22.4051 44.5571H37.595C37.83 44.5571 38.0554 44.4637 38.2215 44.2975C38.3877 44.1314 38.4811 43.906 38.4811 43.671C38.4811 43.436 38.3877 43.2106 38.2215 43.0444C38.0554 42.8783 37.83 42.7849 37.595 42.7849Z" fill="url(#paint3_linear)" />
        <path d="M37.595 47.3418H22.4051C22.1701 47.3418 21.9447 47.4352 21.7786 47.6013C21.6124 47.7675 21.519 47.9929 21.519 48.2279C21.519 48.4629 21.6124 48.6883 21.7786 48.8544C21.9447 49.0206 22.1701 49.1139 22.4051 49.1139H37.595C37.83 49.1139 38.0554 49.0206 38.2215 48.8544C38.3877 48.6883 38.4811 48.4629 38.4811 48.2279C38.4811 47.9929 38.3877 47.7675 38.2215 47.6013C38.0554 47.4352 37.83 47.3418 37.595 47.3418Z" fill="url(#paint4_linear)" />
        <path d="M37.595 51.8987H22.4051C22.1701 51.8987 21.9447 51.992 21.7786 52.1582C21.6124 52.3244 21.519 52.5498 21.519 52.7848C21.519 53.0198 21.6124 53.2451 21.7786 53.4113C21.9447 53.5775 22.1701 53.6708 22.4051 53.6708H37.595C37.83 53.6708 38.0554 53.5775 38.2215 53.4113C38.3877 53.2451 38.4811 53.0198 38.4811 52.7848C38.4811 52.5498 38.3877 52.3244 38.2215 52.1582C38.0554 51.992 37.83 51.8987 37.595 51.8987Z" fill="url(#paint5_linear)" />
        <path d="M53.0379 23.593C52.5622 23.593 52.0972 23.7341 51.7017 23.9983C51.3062 24.2626 50.9979 24.6382 50.8159 25.0777C50.6339 25.5172 50.5862 26.0007 50.679 26.4673C50.7718 26.9338 51.0009 27.3624 51.3372 27.6987C51.6736 28.0351 52.1021 28.2641 52.5687 28.3569C53.0352 28.4497 53.5188 28.4021 53.9583 28.2201C54.3977 28.038 54.7733 27.7298 55.0376 27.3343C55.3019 26.9388 55.4429 26.4738 55.4429 25.9981C55.4421 25.3605 55.1885 24.7492 54.7376 24.2983C54.2868 23.8475 53.6755 23.5938 53.0379 23.593ZM53.0379 26.631C52.9127 26.631 52.7903 26.5939 52.6862 26.5243C52.5822 26.4548 52.501 26.3559 52.4531 26.2403C52.4052 26.1246 52.3927 25.9974 52.4171 25.8746C52.4415 25.7518 52.5018 25.6391 52.5903 25.5505C52.6789 25.462 52.7916 25.4018 52.9144 25.3773C53.0372 25.3529 53.1644 25.3654 53.2801 25.4133C53.3957 25.4613 53.4946 25.5424 53.5641 25.6465C53.6337 25.7505 53.6708 25.8729 53.6708 25.9981C53.6707 26.1659 53.6039 26.3268 53.4853 26.4455C53.3666 26.5641 53.2057 26.6309 53.0379 26.631Z" fill="url(#paint6_linear)" />
        <path d="M47.0252 23.593C46.5495 23.593 46.0845 23.7341 45.689 23.9983C45.2935 24.2626 44.9852 24.6382 44.8032 25.0777C44.6212 25.5172 44.5735 26.0007 44.6663 26.4673C44.7591 26.9338 44.9882 27.3624 45.3245 27.6987C45.6609 28.0351 46.0894 28.2641 46.556 28.3569C47.0225 28.4497 47.5061 28.4021 47.9456 28.2201C48.385 28.038 48.7606 27.7298 49.0249 27.3343C49.2892 26.9388 49.4302 26.4738 49.4302 25.9981C49.4294 25.3605 49.1758 24.7492 48.7249 24.2983C48.2741 23.8475 47.6628 23.5938 47.0252 23.593ZM47.0252 26.631C46.9 26.631 46.7776 26.5939 46.6736 26.5243C46.5695 26.4548 46.4884 26.3559 46.4404 26.2403C46.3925 26.1246 46.38 25.9974 46.4044 25.8746C46.4289 25.7518 46.4891 25.6391 46.5776 25.5505C46.6662 25.462 46.7789 25.4018 46.9017 25.3773C47.0245 25.3529 47.1517 25.3654 47.2674 25.4133C47.383 25.4613 47.4819 25.5424 47.5514 25.6465C47.621 25.7505 47.6581 25.8729 47.6581 25.9981C47.658 26.1659 47.5912 26.3268 47.4726 26.4455C47.3539 26.5641 47.193 26.6309 47.0252 26.631Z" fill="url(#paint7_linear)" />
        <path d="M41.0125 23.593C40.5369 23.593 40.072 23.734 39.6765 23.9982C39.281 24.2624 38.9728 24.6379 38.7907 25.0772C38.6086 25.5166 38.5609 26.0001 38.6535 26.4665C38.7461 26.933 38.975 27.3616 39.3111 27.698C39.6473 28.0344 40.0756 28.2637 40.542 28.3567C41.0084 28.4497 41.492 28.4024 41.9315 28.2207C42.371 28.0389 42.7467 27.731 43.0112 27.3357C43.2758 26.9405 43.4171 26.4757 43.4175 26.0001C43.4173 25.3621 43.1639 24.7503 42.7129 24.299C42.262 23.8477 41.6505 23.5938 41.0125 23.593ZM41.0125 26.631C40.8872 26.631 40.7648 26.5938 40.6606 26.5242C40.5565 26.4545 40.4754 26.3556 40.4276 26.2398C40.3797 26.124 40.3673 25.9967 40.3919 25.8739C40.4165 25.751 40.477 25.6383 40.5657 25.5498C40.6544 25.4614 40.7674 25.4013 40.8903 25.3771C41.0132 25.3529 41.1405 25.3657 41.2561 25.4139C41.3717 25.4621 41.4704 25.5436 41.5397 25.6479C41.609 25.7523 41.6458 25.8748 41.6454 26.0001C41.6447 26.1676 41.5778 26.328 41.4592 26.4462C41.3406 26.5644 41.18 26.6309 41.0125 26.631Z" fill="url(#paint8_linear)" />
        <defs>
            <linearGradient id="paint0_linear" x1="41.5413" y1="4.29299" x2="39.8651" y2="4.32448" gradientUnits="userSpaceOnUse">
                <stop stop-color="#DC5953" />
                <stop offset="1" stop-color="#FD6F31" />
            </linearGradient>
            <linearGradient id="paint1_linear" x1="55.0435" y1="-6.99997" x2="-1.42053" y2="-2.83325" gradientUnits="userSpaceOnUse">
                <stop stop-color="#DC5953" />
                <stop offset="1" stop-color="#FD6F31" />
            </linearGradient>
            <linearGradient id="paint2_linear" x1="17.7179" y1="24.9051" x2="7.71394" y2="30.8812" gradientUnits="userSpaceOnUse">
                <stop stop-color="#DC5953" />
                <stop offset="1" stop-color="#FD6F31" />
            </linearGradient>
            <linearGradient id="paint3_linear" x1="37.0799" y1="42.5782" x2="26.3723" y2="50.1411" gradientUnits="userSpaceOnUse">
                <stop stop-color="#DC5953" />
                <stop offset="1" stop-color="#FD6F31" />
            </linearGradient>
            <linearGradient id="paint4_linear" x1="37.0799" y1="47.135" x2="26.3723" y2="54.6979" gradientUnits="userSpaceOnUse">
                <stop stop-color="#DC5953" />
                <stop offset="1" stop-color="#FD6F31" />
            </linearGradient>
            <linearGradient id="paint5_linear" x1="37.0799" y1="51.6919" x2="26.3723" y2="59.2548" gradientUnits="userSpaceOnUse">
                <stop stop-color="#DC5953" />
                <stop offset="1" stop-color="#FD6F31" />
            </linearGradient>
            <linearGradient id="paint6_linear" x1="55.0456" y1="23.0318" x2="50.5189" y2="23.3659" gradientUnits="userSpaceOnUse">
                <stop stop-color="#DC5953" />
                <stop offset="1" stop-color="#FD6F31" />
            </linearGradient>
            <linearGradient id="paint7_linear" x1="49.0329" y1="23.0318" x2="44.5062" y2="23.3659" gradientUnits="userSpaceOnUse">
                <stop stop-color="#DC5953" />
                <stop offset="1" stop-color="#FD6F31" />
            </linearGradient>
            <linearGradient id="paint8_linear" x1="43.0202" y1="23.0318" x2="38.4935" y2="23.3659" gradientUnits="userSpaceOnUse">
                <stop stop-color="#DC5953" />
                <stop offset="1" stop-color="#FD6F31" />
            </linearGradient>
        </defs>
    </svg>

