<svg width="82" height="60" viewBox="0 0 82 60" fill="none" xmlns="http://www.w3.org/2000/svg">
<path d="M66.3847 19.183H61.2222L62.7777 1.30641C62.7805 1.27402 62.781 1.24212 62.7812 1.21022C62.7812 1.20749 62.7815 1.20493 62.7815 1.2022C62.7815 1.20172 62.7815 1.2014 62.7815 1.20092C62.7815 0.714365 62.4882 0.285522 62.0573 0.0990753C62.0536 0.0974722 62.0501 0.0955488 62.0464 0.0939456C62.0196 0.0827236 61.9919 0.0731041 61.9641 0.0638058C61.9536 0.0604392 61.9437 0.0562708 61.9333 0.0530645C61.9106 0.0461709 61.8872 0.0407203 61.864 0.0351093C61.8476 0.0312617 61.8319 0.0266129 61.8154 0.0234066C61.7951 0.0193987 61.7739 0.0168341 61.7531 0.0137881C61.7336 0.0109024 61.7144 0.00753531 61.6947 0.00577184C61.6913 0.00545121 61.6883 0.00480943 61.6849 0.0044888C61.6638 0.00256502 61.6429 0.00288575 61.622 0.00208417C61.6079 0.00160323 61.5941 0 61.58 0H61.5649C61.5637 0 61.5624 0 61.5613 0H36.9978C36.3348 0 35.7967 0.538659 35.7967 1.20236C35.7967 1.86446 36.3348 2.40473 36.9978 2.40473H60.2707L57.8802 29.8787C57.8799 29.8808 57.8799 29.8829 57.8796 29.885L57.2764 36.8172H15.5381L16.2362 29.6033H24.1834C24.8469 29.6033 25.3845 29.065 25.3845 28.4009C25.3845 27.7369 24.8469 27.1986 24.1834 27.1986H16.4691L17.9432 11.9694H30.5916C31.2551 11.9694 31.7927 11.4311 31.7927 10.7671C31.7927 10.1031 31.2551 9.56472 30.5916 9.56472H18.176L18.8692 2.40473H32.1931C32.8546 2.40473 33.3943 1.86446 33.3943 1.20236C33.3943 0.538659 32.8546 0 32.1931 0H17.779C17.7784 0 17.7779 0.000160227 17.7773 0.000160227C17.213 -8.80713e-08 16.7236 0.397582 16.6052 0.948746C16.6044 0.952754 16.603 0.956601 16.6022 0.960609C16.5961 0.990587 16.5921 1.02121 16.5881 1.05199C16.587 1.06177 16.5849 1.07107 16.5839 1.08084C16.5838 1.08277 16.5833 1.08453 16.5831 1.08646L15.7625 9.56472H1.20118C0.537647 9.56472 0 10.1031 0 10.7671C0 11.4311 0.537647 11.9694 1.20118 11.9694H15.5296L14.0555 27.1986H9.76989C9.10636 27.1986 8.56871 27.7369 8.56871 28.4009C8.56871 29.065 9.10636 29.6033 9.76989 29.6033H13.8228L13.0201 37.895C13.02 37.8962 13.02 37.8975 13.0198 37.8986L11.7787 50.7205C11.7786 50.7219 11.7784 50.7235 11.7783 50.7248L11.7778 50.7295C11.7762 50.7461 11.7763 50.7625 11.7754 50.7792C11.7743 50.8013 11.772 50.8229 11.772 50.8454C11.772 50.8463 11.7722 50.8473 11.7722 50.8484C11.7722 50.8794 11.7744 50.9098 11.7767 50.9403C11.7776 50.9501 11.7773 50.96 11.7784 50.9696C11.7816 51.0007 11.7869 51.0313 11.7925 51.0618C11.7941 51.0708 11.7949 51.0799 11.7967 51.0887C11.8013 51.1118 11.8079 51.1341 11.814 51.1567C11.8181 51.1726 11.8215 51.1888 11.8263 51.2043C11.8277 51.2086 11.8297 51.2128 11.8309 51.2173C11.8891 51.3962 11.9877 51.5568 12.1165 51.688C12.1189 51.6904 12.1208 51.6931 12.1232 51.6954C12.136 51.7082 12.15 51.7197 12.1634 51.7319C12.2462 51.8079 12.3398 51.8723 12.4421 51.9228C12.4634 51.9334 12.4844 51.9445 12.5062 51.9536C12.5127 51.9565 12.5198 51.9584 12.5265 51.961C12.5566 51.973 12.5869 51.9846 12.6181 51.9943C12.621 51.9951 12.6237 51.9956 12.6266 51.9966C12.6622 52.0072 12.698 52.0165 12.7347 52.024C12.7395 52.025 12.7445 52.0253 12.7491 52.0262C12.784 52.0328 12.8191 52.0384 12.8548 52.042C12.8556 52.042 12.8563 52.0421 12.8571 52.0423C12.8965 52.0461 12.9356 52.048 12.9743 52.048C12.9748 52.048 12.9754 52.0479 12.9761 52.0479H18.3234C18.9139 56.5292 22.752 60 27.3878 60C32.0232 60 35.8614 56.5292 36.4519 52.0479H55.7186C56.3092 56.5292 60.1472 60 64.7828 60C69.4182 60 73.2567 56.5292 73.8474 52.0479H79.196C79.1968 52.0479 79.1977 52.048 79.1985 52.048C79.2386 52.048 79.278 52.0456 79.3171 52.0418C79.3241 52.0412 79.3308 52.0397 79.3379 52.0389C79.3691 52.0352 79.4002 52.0309 79.4306 52.0248C79.4437 52.0222 79.4564 52.0187 79.4694 52.0157C79.4929 52.0102 79.5166 52.0044 79.5397 51.9976C79.5554 51.9929 79.5706 51.9874 79.586 51.9822C79.6057 51.9754 79.6254 51.9684 79.6447 51.9605C79.6614 51.9539 79.6772 51.9467 79.6934 51.9395C79.711 51.9313 79.7287 51.923 79.7458 51.9142C79.7621 51.9058 79.7778 51.8972 79.7935 51.8882C79.81 51.8786 79.8264 51.8687 79.8425 51.8584C79.8576 51.8488 79.8726 51.839 79.887 51.8287C79.9034 51.8174 79.9189 51.8053 79.9348 51.7931C79.9479 51.7827 79.9612 51.7725 79.974 51.7616C79.9905 51.7476 80.0061 51.733 80.0217 51.7181C80.0326 51.7077 80.044 51.6974 80.0546 51.6865C80.0712 51.6695 80.0871 51.6516 80.1029 51.6335C80.1114 51.6237 80.1202 51.6142 80.1284 51.6043C80.146 51.5825 80.162 51.56 80.1781 51.5374C80.1835 51.5296 80.1896 51.5222 80.1949 51.5142C80.2144 51.4849 80.2328 51.4547 80.2498 51.4236C80.2511 51.4217 80.2524 51.4199 80.2532 51.4178C80.2713 51.3845 80.2879 51.3504 80.3028 51.3151C80.307 51.305 80.3102 51.2946 80.3142 51.2845C80.324 51.2596 80.3336 51.2348 80.3417 51.209C80.347 51.1923 80.3509 51.1751 80.3555 51.1583C80.3608 51.1383 80.3664 51.1184 80.3709 51.098C80.3749 51.0799 80.3774 51.0613 80.3805 51.0429C80.3832 51.0267 80.3867 51.0108 80.3888 50.9943C80.4398 50.5858 81.3804 43.0319 81.8004 38.1475C81.8009 38.1428 81.8011 38.138 81.8016 38.1333C81.9225 36.7253 82 35.5396 82 34.8137C82 26.195 74.9951 19.183 66.3847 19.183ZM61.0129 21.588H65.927L65.2993 28.8016H60.3852L61.0129 21.588ZM27.3881 57.5951C23.6697 57.5951 20.6447 54.5671 20.6447 50.8452C20.6447 47.1233 23.6699 44.0953 27.3881 44.0953C31.1063 44.0953 34.1314 47.1233 34.1314 50.8452C34.1314 54.5671 31.1063 57.5951 27.3881 57.5951ZM64.7828 57.5951C61.0646 57.5951 58.0397 54.5671 58.0397 50.8452C58.0397 47.1233 61.0648 44.0953 64.7828 44.0953C68.5012 44.0953 71.5262 47.1233 71.5262 50.8452C71.5262 54.5671 68.5012 57.5951 64.7828 57.5951ZM78.1346 49.6424H73.8477C73.2574 45.1608 69.419 41.6898 64.7831 41.6898C60.1476 41.6898 56.3092 45.1609 55.7189 49.6424H36.4523C35.862 45.1608 32.0238 41.6898 27.3881 41.6898C22.7524 41.6898 18.9139 45.1609 18.3235 49.6424H14.2966L15.3054 39.2212H58.3772V39.2219C58.3778 39.2219 58.3783 39.2219 58.3789 39.2219C58.4191 39.2219 58.459 39.2196 58.4984 39.2156C58.5058 39.215 58.513 39.2134 58.5204 39.2124C58.5518 39.2087 58.583 39.2042 58.6137 39.1982C58.627 39.1954 58.64 39.1917 58.6531 39.1885C58.6772 39.1828 58.7012 39.1772 58.7246 39.1701C58.7406 39.1653 58.7558 39.1595 58.7713 39.1541C58.7915 39.147 58.8117 39.1401 58.8312 39.1321C58.848 39.1252 58.8642 39.1175 58.8806 39.1098C58.8983 39.1016 58.9161 39.0935 58.9332 39.0845C58.9496 39.0758 58.9656 39.0665 58.9818 39.0572C58.9983 39.0476 59.0146 39.0378 59.0306 39.0276C59.0462 39.0175 59.0609 39.0069 59.0758 38.9963C59.0916 38.9851 59.107 38.9736 59.1224 38.9615C59.1362 38.9505 59.1498 38.9391 59.1632 38.9274C59.1784 38.9142 59.1933 38.9008 59.2078 38.8868C59.2199 38.8751 59.2321 38.8631 59.2439 38.8508C59.2584 38.8357 59.2723 38.8201 59.2861 38.8043C59.2968 38.7918 59.3074 38.7793 59.3176 38.7664C59.3309 38.7496 59.3436 38.7323 59.3561 38.7148C59.3655 38.7017 59.3746 38.6885 59.3836 38.675C59.3953 38.6569 59.4065 38.6383 59.4172 38.6194C59.4254 38.6053 59.4337 38.5912 59.4411 38.5768C59.4512 38.5579 59.4598 38.5386 59.469 38.5192C59.476 38.5037 59.4832 38.4884 59.4896 38.4724C59.4975 38.4535 59.504 38.4341 59.5109 38.4147C59.5169 38.3975 59.5231 38.3804 59.5284 38.3628C59.5337 38.3442 59.538 38.3251 59.5428 38.3062C59.5475 38.2871 59.5526 38.2682 59.5563 38.2488C59.5599 38.2299 59.5622 38.2106 59.5651 38.1914C59.5679 38.1715 59.5713 38.1519 59.5732 38.1317C59.5736 38.1289 59.5742 38.1261 59.5744 38.1232L60.1764 31.2057H66.3844C70.0646 31.2057 71.7245 33.1144 73.4816 35.1353C74.9315 36.8027 76.5502 38.6632 79.3017 39.117C78.9522 42.8155 78.3873 47.5634 78.1346 49.6424ZM79.507 36.7075C77.7221 36.3433 76.6239 35.0872 75.2934 33.5572C73.6296 31.6438 71.5983 29.3088 67.7044 28.8737L68.3258 21.732C74.6943 22.6748 79.5976 28.1813 79.5976 34.814C79.5976 35.2647 79.564 35.9194 79.507 36.7075Z" fill="url(#paint0_linear)"/>
<defs>
<linearGradient id="paint0_linear" x1="75.2261" y1="-6.99997" x2="-1.58041" y2="0.746135" gradientUnits="userSpaceOnUse">
<stop stop-color="#DC5953"/>
<stop offset="1" stop-color="#FD6F31"/>
</linearGradient>
</defs>
</svg>

