<svg>
    <symbol id="whatsapp" width="20" height="20" viewBox="0 0 20 20" fill="none" xmlns="http://www.w3.org/2000/svg">
        <path d="M17.0282 2.90436C15.1494 1.03256 12.65 0.00106812 9.98993 0C7.33582 0 4.83246 1.03058 2.94128 2.90192C1.04675 4.77646 0.00244141 7.26761 0 9.90738V9.91043V9.91226C0.000305176 11.51 0.420074 13.1218 1.21689 14.593L0.0273132 20L5.49652 18.756C6.88171 19.454 8.42728 19.8221 9.98611 19.8227H9.99008C12.6437 19.8227 15.1471 18.792 17.0386 16.9205C18.9348 15.0444 19.9796 12.5565 19.9808 9.91501C19.9815 7.29218 18.9331 4.8024 17.0282 2.90436ZM9.98993 18.2617H9.98642C8.58673 18.2611 7.19986 17.9097 5.97595 17.2452L5.71732 17.1048L2.08054 17.932L2.87048 14.3419L2.7182 14.0793C1.96106 12.7736 1.56097 11.3322 1.56097 9.91058C1.56387 5.30899 5.3447 1.56097 9.98962 1.56097C12.2336 1.56189 14.342 2.43179 15.9265 4.01016C17.5349 5.61295 18.4204 7.70981 18.4196 9.91455C18.4178 14.5172 14.6362 18.2617 9.98993 18.2617Z" fill="#3C3E42" />
        <path d="M7.27139 5.5415H6.83347C6.68103 5.5415 6.43353 5.59857 6.22418 5.82639C6.01468 6.05435 5.42432 6.60535 5.42432 7.72595C5.42432 8.84656 6.24326 9.92932 6.35739 10.0815C6.47168 10.2334 7.9382 12.6065 10.2609 13.5194C12.1913 14.2781 12.5842 14.1272 13.0031 14.0892C13.4221 14.0513 14.3551 13.5383 14.5456 13.0066C14.736 12.4748 14.736 12.0189 14.6789 11.9236C14.6217 11.8287 14.4693 11.7718 14.2408 11.658C14.0123 11.544 12.8923 10.9837 12.6828 10.9076C12.4733 10.8317 12.321 10.7937 12.1685 11.0219C12.0161 11.2495 11.5674 11.7762 11.434 11.9282C11.3008 12.0804 11.1674 12.0994 10.9388 11.9854C10.7103 11.8712 9.98181 11.6264 9.10886 10.8506C8.42938 10.2469 7.95789 9.4769 7.82452 9.24893C7.69131 9.02112 7.81033 8.89783 7.92493 8.78415C8.02762 8.68222 8.16632 8.54276 8.28061 8.40985C8.39475 8.27679 8.42725 8.18189 8.50354 8.02991C8.57968 7.87793 8.54153 7.74487 8.48447 7.63104C8.42725 7.51706 7.98871 6.39081 7.78546 5.94037H7.78561C7.61441 5.56104 7.4342 5.54822 7.27139 5.5415Z" fill="#3C3E42" />
    </symbol>
    <symbol id="mail" width="20" height="20" viewBox="0 0 20 20" fill="none" xmlns="http://www.w3.org/2000/svg">
        <path d="M18.2422 2.96875H1.75781C0.786602 2.96875 0 3.76023 0 4.72656V15.2734C0 16.2455 0.792383 17.0312 1.75781 17.0312H18.2422C19.2053 17.0312 20 16.2488 20 15.2734V4.72656C20 3.76195 19.2165 2.96875 18.2422 2.96875ZM17.996 4.14062C17.6369 4.49785 11.4564 10.6458 11.243 10.8581C10.9109 11.1901 10.4695 11.3729 10 11.3729C9.53047 11.3729 9.08906 11.1901 8.75594 10.857C8.61242 10.7142 2.50012 4.63414 2.00398 4.14062H17.996ZM1.17188 15.0349V4.96582L6.23586 10.0031L1.17188 15.0349ZM2.00473 15.8594L7.06672 10.8296L7.9284 11.6867C8.48176 12.2401 9.21746 12.5448 10 12.5448C10.7825 12.5448 11.5182 12.2401 12.0705 11.6878L12.9333 10.8296L17.9953 15.8594H2.00473ZM18.8281 15.0349L13.7641 10.0031L18.8281 4.96582V15.0349Z" fill="#3C3E42" />
    </symbol>
    <symbol id="cross" width="43" height="43" viewBox="0 0 43 43" fill="none" xmlns="http://www.w3.org/2000/svg">
        <g opacity="0.4">
            <path d="M10.6069 10.6062L31.8201 31.8194" stroke="#423C3C" stroke-linecap="round" stroke-linejoin="round" />
            <path d="M10.6069 31.8201L31.8201 10.6069" stroke="#423C3C" stroke-linecap="round" stroke-linejoin="round" />
        </g>
    </symbol>

    <symbol id="phone" width="20" height="20" viewBox="0 0 30 30" fill="none" xmlns="http://www.w3.org/2000/svg">
        <path d="M24.3751 27.1875H24.2158C5.79389 26.1281 3.17827 10.5844 2.81264 5.84063C2.78318 5.47179 2.82679 5.10077 2.94096 4.74882C3.05514 4.39687 3.23763 4.07091 3.478 3.78961C3.71837 3.50831 4.01188 3.27721 4.34171 3.10954C4.67155 2.94187 5.03123 2.84093 5.40014 2.8125H10.5658C10.9413 2.81214 11.3083 2.92454 11.6192 3.13515C11.9301 3.34576 12.1706 3.64488 12.3095 3.99375L13.7345 7.5C13.8717 7.84083 13.9058 8.21445 13.8324 8.57446C13.7591 8.93447 13.5816 9.26501 13.322 9.525L11.3251 11.5406C11.6371 13.3132 12.4859 14.9472 13.7569 16.2215C15.0279 17.4959 16.6596 18.349 18.4314 18.6656L20.4658 16.65C20.7297 16.3933 21.0633 16.2199 21.4251 16.1516C21.7869 16.0832 22.1608 16.1229 22.5001 16.2656L26.0345 17.6813C26.3781 17.8246 26.6713 18.067 26.8767 18.3775C27.082 18.6881 27.1903 19.0527 27.1876 19.425V24.375C27.1876 25.1209 26.8913 25.8363 26.3639 26.3637C25.8364 26.8912 25.1211 27.1875 24.3751 27.1875ZM5.62514 4.6875C5.3765 4.6875 5.13804 4.78627 4.96223 4.96209C4.78641 5.1379 4.68764 5.37636 4.68764 5.625V5.7C5.11889 11.25 7.88452 24.375 24.3189 25.3125C24.4421 25.3201 24.5655 25.3033 24.6822 25.2631C24.7988 25.2229 24.9064 25.1601 24.9987 25.0782C25.0911 24.9963 25.1663 24.897 25.2202 24.786C25.2741 24.675 25.3055 24.5544 25.3126 24.4312V19.425L21.7783 18.0094L19.0876 20.6812L18.6376 20.625C10.4814 19.6031 9.37514 11.4469 9.37514 11.3625L9.31889 10.9125L11.9814 8.22188L10.5751 4.6875H5.62514Z" fill="#3C3E42" />
    </symbol>

    <symbol id="menu" width="30" height="26" viewBox="0 0 30 26" fill="none" xmlns="http://www.w3.org/2000/svg">
        <path d="M0 1H30" stroke="#37352D" />
        <path d="M0 25H30" stroke="#37352D" />
        <path d="M0 13H30" stroke="#37352D" />
    </symbol>


</svg>